<?xml version="1.0" encoding="UTF-8"?>
<svg width="40px" height="40px" viewBox="0 0 40 40" version="1.1" xmlns="http://www.w3.org/2000/svg" xmlns:xlink="http://www.w3.org/1999/xlink">
    <!-- Generator: Sketch 55.2 (78181) - https://sketchapp.com -->
    <title>Group 5</title>
    <desc>Created with Sketch.</desc>
    <g id="Page-1" stroke="none" stroke-width="1" fill="none" fill-rule="evenodd">
        <g id="Aime---hotel" transform="translate(-735.000000, -3450.000000)" fill="#0180B7">
            <g id="Group-5" transform="translate(735.000000, 3450.000000)">
                <path d="M20,37.65625 C10.2642969,37.65625 2.34375,29.7357031 2.34375,20 C2.34375,10.2642969 10.2642969,2.34375 20,2.34375 C29.7357031,2.34375 37.65625,10.2642969 37.65625,20 C37.65625,29.7357031 29.7357031,37.65625 20,37.65625 M34.1421094,5.8578125 C30.3646094,2.08039062 25.3421875,0 20,0 C14.6577344,0 9.63523438,2.08039062 5.8578125,5.8578125 C2.0803125,9.6353125 0,14.6578125 0,20 C0,25.3421875 2.0803125,30.3646094 5.8578125,34.1421094 C9.6353125,37.9196094 14.6577344,40 20,40 C25.3421875,40 30.3646094,37.9196094 34.1421094,34.1421094 C37.9196094,30.3646094 40,25.3421875 40,20 C40,14.6578125 37.9196094,9.63539063 34.1421094,5.8578125" id="Fill-1"></path>
                <path d="M29.6532333,13.6716959 C29.1910354,13.220533 28.4413847,13.220533 27.979029,13.6717729 L17.5244082,23.8767912 L12.0211288,18.5048247 C11.5587732,18.0535847 10.8092013,18.0535847 10.3467667,18.5048247 C9.88441108,18.9560646 9.88441108,19.6878176 10.3467667,20.1391346 L16.6872272,26.3282174 C16.918405,26.5538759 17.2214066,26.6666667 17.5243293,26.6666667 C17.8273309,26.6666667 18.1303325,26.5538759 18.3615104,26.3282174 L29.6532333,15.3060058 C30.1155889,14.8547658 30.1155889,14.1230129 29.6532333,13.6716959" id="Fill-3"></path>
            </g>
        </g>
    </g>
</svg>