<?xml version="1.0" encoding="UTF-8"?>
<svg width="35px" height="35px" viewBox="0 0 35 35" version="1.1" xmlns="http://www.w3.org/2000/svg" xmlns:xlink="http://www.w3.org/1999/xlink">
    <!-- Generator: Sketch 55.2 (78181) - https://sketchapp.com -->
    <title>Fill 1</title>
    <desc>Created with Sketch.</desc>
    <g id="Page-1" stroke="none" stroke-width="1" fill="none" fill-rule="evenodd">
        <g id="Aime---hotel" transform="translate(-1130.000000, -4654.000000)" fill="#FFFFFF">
            <g id="Group-9" transform="translate(885.000000, 4654.000000)">
                <path d="M274.873047,0 L250.126953,0 C247.300156,0 245,2.30015625 245,5.12695312 L245,29.8730469 C245,32.6998437 247.300156,35 250.126953,35 L260.449219,35 L260.449219,22.6269531 L256.347656,22.6269531 L256.347656,16.4746094 L260.449219,16.4746094 L260.449219,12.3046875 C260.449219,8.91208008 263.208955,6.15234375 266.601562,6.15234375 L272.822266,6.15234375 L272.822266,12.3046875 L266.601562,12.3046875 L266.601562,16.4746094 L272.822266,16.4746094 L271.796875,22.6269531 L266.601562,22.6269531 L266.601562,35 L274.873047,35 C277.699844,35 280,32.6998437 280,29.8730469 L280,5.12695312 C280,2.30015625 277.699844,0 274.873047,0" id="Fill-1"></path>
            </g>
        </g>
    </g>
</svg>