<?xml version="1.0" encoding="UTF-8"?>
<svg width="79px" height="85px" viewBox="0 0 79 85" version="1.1" xmlns="http://www.w3.org/2000/svg" xmlns:xlink="http://www.w3.org/1999/xlink">
    <!-- Generator: Sketch 55.2 (78181) - https://sketchapp.com -->
    <title>Group 29</title>
    <desc>Created with Sketch.</desc>
    <g id="Page-1" stroke="none" stroke-width="1" fill="none" fill-rule="evenodd">
        <g id="Aime---hotel" transform="translate(-1176.000000, -2953.000000)" fill="#000000">
            <g id="Group-29" transform="translate(1176.000000, 2953.000000)">
                <path d="M2.82141598,7.08333333 C2.82423739,4.73715625 4.71723117,2.83616667 7.05353994,2.83333333 L47.9640716,2.83333333 L47.9640716,12.75 C47.9683037,16.6601771 51.1238811,19.8289063 55.0176115,19.8333333 L64.8925674,19.8333333 L64.8925674,46.1596042 C54.4418663,43.0280625 43.4420471,48.9971875 40.3240298,59.4920313 C37.7445502,68.1731875 41.3515542,77.5060104 49.0871715,82.1666667 L7.05353994,82.1666667 C4.71723117,82.1638333 2.82423739,80.2626667 2.82141598,77.9166667 L2.82141598,7.08333333 Z M50.7854876,4.83667708 L62.89765,17 L55.0176115,17 C52.6813028,16.9973438 50.7881326,15.0961771 50.7854876,12.75 L50.7854876,4.83667708 Z M76.1782313,65.1666667 C76.1782313,74.555625 68.5992027,82.1666667 59.2497355,82.1666667 C49.9002683,82.1666667 42.3212396,74.555625 42.3212396,65.1666667 C42.3212396,55.7777083 49.9002683,48.1666667 59.2497355,48.1666667 C68.5947942,48.1772917 76.167651,55.7821354 76.1782313,65.1666667 L76.1782313,65.1666667 Z M7.05353994,85 L59.2497355,85 C70.156448,85.0010625 78.998942,76.1229896 79,65.1702083 C79,57.508875 74.6070553,50.5323229 67.7139834,47.2495521 L67.7139834,18.4166667 C67.7139834,18.0408958 67.5653301,17.6805313 67.3008223,17.4149063 L50.3723265,0.41490625 C50.1076424,0.14928125 49.7489699,0 49.3747796,0 L7.05353994,0 C3.15980955,0.00442708333 0.00440846246,3.17315625 0,7.08333333 L0,77.9166667 C0.00440846246,81.8268438 3.15980955,84.99575 7.05353994,85 L7.05353994,85 Z" id="Fill-1"></path>
                <path d="M22,26.5 C22,27.328375 22.6371827,28 23.4230769,28 L57.5769231,28 C58.3628173,28 59,27.328375 59,26.5 C59,25.671625 58.3628173,25 57.5769231,25 L23.4230769,25 C22.6371827,25 22,25.671625 22,26.5" id="Fill-3"></path>
                <path d="M9.40909091,37 L37.5909091,37 C38.3690795,37 39,36.328375 39,35.5 C39,34.671625 38.3690795,34 37.5909091,34 L9.40909091,34 C8.63092045,34 8,34.671625 8,35.5 C8,36.328375 8.63092045,37 9.40909091,37" id="Fill-5"></path>
                <path d="M43.6,42 L32.4,42 C31.62685,42 31,42.671625 31,43.5 C31,44.328375 31.62685,45 32.4,45 L43.6,45 C44.37315,45 45,44.328375 45,43.5 C45,42.671625 44.37315,42 43.6,42" id="Fill-7"></path>
                <path d="M10.4,54 L35.6,54 C36.37315,54 37,53.328375 37,52.5 C37,51.671625 36.37315,51 35.6,51 L10.4,51 C9.62685,51 9,51.671625 9,52.5 C9,53.328375 9.62685,54 10.4,54" id="Fill-9"></path>
                <path d="M10.375,28 L18.625,28 C19.3843437,28 20,27.328375 20,26.5 C20,25.671625 19.3843437,25 18.625,25 L10.375,25 C9.61565625,25 9,25.671625 9,26.5 C9,27.328375 9.61565625,28 10.375,28" id="Fill-11"></path>
                <path d="M57.5833333,34 L43.4166667,34 C42.6343125,34 42,34.671625 42,35.5 C42,36.328375 42.6343125,37 43.4166667,37 L57.5833333,37 C58.3656875,37 59,36.328375 59,35.5 C59,34.671625 58.3656875,34 57.5833333,34" id="Fill-13"></path>
                <path d="M9.42857143,45 L26.5714286,45 C27.3603571,45 28,44.328375 28,43.5 C28,42.671625 27.3603571,42 26.5714286,42 L9.42857143,42 C8.63964286,42 8,42.671625 8,43.5 C8,44.328375 8.63964286,45 9.42857143,45" id="Fill-15"></path>
                <path d="M32.6666667,68 L27.3333333,68 C26.597,68 26,68.671625 26,69.5 C26,70.328375 26.597,71 27.3333333,71 L32.6666667,71 C33.403,71 34,70.328375 34,69.5 C34,68.671625 33.403,68 32.6666667,68" id="Fill-17"></path>
                <path d="M10.4,71 L21.6,71 C22.37315,71 23,70.328375 23,69.5 C23,68.671625 22.37315,68 21.6,68 L10.4,68 C9.62685,68 9,68.671625 9,69.5 C9,70.328375 9.62685,71 10.4,71" id="Fill-19"></path>
                <path d="M10.375,62 L18.625,62 C19.3843437,62 20,61.328375 20,60.5 C20,59.671625 19.3843437,59 18.625,59 L10.375,59 C9.61565625,59 9,59.671625 9,60.5 C9,61.328375 9.61565625,62 10.375,62" id="Fill-21"></path>
                <path d="M9.42857143,20 L26.5714286,20 C27.3603571,20 28,19.328375 28,18.5 C28,17.671625 27.3603571,17 26.5714286,17 L9.42857143,17 C8.63964286,17 8,17.671625 8,18.5 C8,19.328375 8.63964286,20 9.42857143,20" id="Fill-23"></path>
                <path d="M32.625,59 L24.375,59 C23.6156563,59 23,59.671625 23,60.5 C23,61.328375 23.6156563,62 24.375,62 L32.625,62 C33.3843437,62 34,61.328375 34,60.5 C34,59.671625 33.3843437,59 32.625,59" id="Fill-25"></path>
                <path d="M51.4392105,68.8444717 C50.881248,68.286444 49.9764343,68.286444 49.4184719,68.8444717 C48.8605094,69.4024994 48.8605094,70.3074188 49.4184719,70.8654465 L55.1338365,76.5814792 C55.4019229,76.8494183 55.7652057,77 56.1442059,77 C56.1910004,77 56.2379736,76.9978565 56.2851253,76.9930336 C56.7110986,76.9508778 57.0956355,76.7199144 57.3331803,76.3637341 L68.7639097,59.2156359 C69.1982774,58.5566846 69.0162788,57.6703422 68.357583,57.2361024 C67.7035309,56.8048991 66.8242578,56.9806672 66.386318,57.6301514 L55.9223783,73.3281635 L51.4392105,68.8444717 Z" id="Fill-27"></path>
            </g>
        </g>
    </g>
</svg>