<?xml version="1.0" encoding="UTF-8"?>
<svg width="51px" height="35px" viewBox="0 0 51 35" version="1.1" xmlns="http://www.w3.org/2000/svg" xmlns:xlink="http://www.w3.org/1999/xlink">
    <!-- Generator: Sketch 55.2 (78181) - https://sketchapp.com -->
    <title>Fill 1</title>
    <desc>Created with Sketch.</desc>
    <g id="Page-1" stroke="none" stroke-width="1" fill="none" fill-rule="evenodd">
        <g id="Aime---hotel" transform="translate(-1234.000000, -4654.000000)" fill="#FFFFFF">
            <g id="Group-9" transform="translate(885.000000, 4654.000000)">
                <path d="M368.090909,27.0454545 L368.090909,7.95454545 L384,17.5 L368.090909,27.0454545 Z M397.745455,3.37272727 C396.364545,0.916363636 394.865909,0.464545455 391.814545,0.292727273 C388.766364,0.0859090909 381.101364,0 374.460909,0 C367.807727,0 360.139545,0.0859090909 357.094545,0.289545455 C354.049545,0.464545455 352.547727,0.913181818 351.154091,3.37272727 C349.731818,5.82590909 349,10.0513636 349,17.4904545 L349,17.5 L349,17.5095455 L349,17.5159091 C349,24.9231818 349.731818,29.1804545 351.154091,31.6081818 C352.547727,34.0645455 354.046364,34.51 357.091364,34.7168182 C360.139545,34.895 367.807727,35 374.460909,35 C381.101364,35 388.766364,34.895 391.817727,34.72 C394.869091,34.5131818 396.367727,34.0677273 397.748636,31.6113636 C399.183636,29.1836364 399.909091,24.9263636 399.909091,17.5190909 L399.909091,17.5031818 L399.909091,17.4936364 C399.909091,10.0513636 399.183636,5.82590909 397.745455,3.37272727 L397.745455,3.37272727 Z" id="Fill-1"></path>
            </g>
        </g>
    </g>
</svg>