<?xml version="1.0" encoding="UTF-8"?>
<svg width="194px" height="45px" viewBox="0 0 194 45" version="1.1" xmlns="http://www.w3.org/2000/svg" xmlns:xlink="http://www.w3.org/1999/xlink">
    <!-- Generator: Sketch 55.2 (78181) - https://sketchapp.com -->
    <title>Group</title>
    <desc>Created with Sketch.</desc>
    <defs>
        <polygon id="path-1" points="0.0350376717 0.151886139 62.3482854 0.151886139 62.3482854 31.4906436 0.0350376717 31.4906436"></polygon>
        <polygon id="path-3" points="0.0350376717 0.151886139 62.3482854 0.151886139 62.3482854 31.4906436 0.0350376717 31.4906436"></polygon>
        <polygon id="path-5" points="0.0350376717 0.151886139 62.3482854 0.151886139 62.3482854 31.4906436 0.0350376717 31.4906436"></polygon>
        <polygon id="path-7" points="0.00950726187 0.065929803 41.3404268 0.065929803 41.3404268 32.1011416 0.00950726187 32.1011416"></polygon>
        <polygon id="path-9" points="0.00950726187 0.065929803 41.3404268 0.065929803 41.3404268 32.1011416 0.00950726187 32.1011416"></polygon>
        <polygon id="path-11" points="2.93658537e-05 0.043755122 5.90606049 0.043755122 5.90606049 5.94963941 2.93658537e-05 5.94963941"></polygon>
    </defs>
    <g id="Page-1" stroke="none" stroke-width="1" fill="none" fill-rule="evenodd">
        <g id="Group">
            <g id="Logo">
                <polygon id="Fill-1" fill="#2A80B9" fill-rule="nonzero" points="45.8682171 45 51.8837209 45 51.8837209 14.25 45.8682171 14.25"></polygon>
                <polyline id="Fill-2" fill="#2A80B9" fill-rule="nonzero" points="81.9612403 14.25 81.9612403 45 76.0903965 45 76.0903965 26.4680112 71.3360307 38.7678863 68.5658671 38.7678863 63.7699111 26.4680112 63.7699111 45 57.8992248 45 57.8992248 14.25 63.7699111 14.25 63.7699111 14.33202 69.9303113 29.0920262 76.0903965 14.33202 76.0903965 14.25 81.9612403 14.25"></polyline>
                <g id="Group-7" transform="translate(87.976744, 13.500000)">
                    <g id="Fill-3-Clipped">
                        <mask id="mask-2" fill="white">
                            <use xlink:href="#path-1"></use>
                        </mask>
                        <g id="path-1"></g>
                        <polyline id="Fill-3" fill="#2A80B9" fill-rule="nonzero" mask="url(#mask-2)" points="5.94639343 5.43109901 5.94639343 12.1836386 15.141436 12.1836386 15.141436 17.2582574 5.94639343 17.2582574 5.94639343 26.1387624 17.3581944 26.1387624 17.3581944 31.1316683 0.0350376717 31.1316683 0.0350376717 0.438193069 16.9477531 0.438193069 16.9477531 5.43109901 5.94639343 5.43109901"></polyline>
                    </g>
                    <g id="Fill-5-Clipped">
                        <mask id="mask-4" fill="white">
                            <use xlink:href="#path-3"></use>
                        </mask>
                        <g id="path-1"></g>
                        <path d="M33.3264568,11.1196559 L33.3264568,8.25487129 C33.3264568,6.0860495 31.8897559,4.81731683 30.0424572,4.81731683 C27.9491127,4.81731683 26.4302922,5.84044307 26.4302922,8.74592822 C26.4302922,11.2833936 27.8258552,11.9790446 30.9456158,13.2886337 C34.2296154,14.721104 39.2376562,16.8490693 39.2376562,23.2332772 C39.2376562,28.6762277 36.2409967,31.5 30.0424572,31.5 C22.4893363,31.5 20.3548538,28.5943589 20.3548538,21.1051559 L26.2660532,21.1051559 C26.2660532,25.1568045 26.9638346,26.8345693 30.0016321,26.8345693 C31.9308939,26.8345693 33.2446501,25.6478614 33.2446501,23.2332772 C33.2446501,20.3276361 30.7815331,18.9771906 27.6206346,17.6674455 C22.6947133,15.5803366 20.4779549,13.4523713 20.4779549,8.45946535 C20.4779549,3.42585891 24.2545154,0.151886139 30.0424572,0.151886139 C35.6663164,0.151886139 39.0735735,3.01651485 39.0735735,8.45946535 L39.0735735,11.1196559 L33.3264568,11.1196559" id="Fill-5" fill="#2A80B9" fill-rule="nonzero" mask="url(#mask-4)"></path>
                    </g>
                    <g id="Fill-6-Clipped">
                        <mask id="mask-6" fill="white">
                            <use xlink:href="#path-5"></use>
                        </mask>
                        <g id="path-1"></g>
                        <path d="M56.8888218,8.74592822 C56.8888218,5.96316832 55.2880382,4.81731683 53.1122613,4.81731683 C51.1007236,4.81731683 49.1714618,5.5539802 49.1714618,8.50047772 L49.1714618,23.3968589 C49.1714618,26.1797748 51.4293582,26.9162822 53.1122613,26.9162822 C55.0825047,26.9162822 56.8888218,26.1797748 56.8888218,23.2332772 L56.8888218,8.74592822 Z M62.3482854,8.50047772 L62.3482854,23.2332772 C62.3482854,28.7579406 59.1467182,31.5 52.7428016,31.5 C47.6524849,31.5 43.7118417,28.6352153 43.7118417,23.2332772 L43.7118417,8.50047772 C43.7118417,2.8937896 46.9958413,0.151886139 53.276344,0.151886139 C59.0644422,0.151886139 62.3482854,3.05737129 62.3482854,8.50047772 L62.3482854,8.50047772 Z" id="Fill-6" fill="#2A80B9" fill-rule="nonzero" mask="url(#mask-6)"></path>
                    </g>
                </g>
                <polyline id="Fill-8" fill="#2A80B9" fill-rule="nonzero" points="161.749334 45 155.651163 45 155.651163 14.25 172.945736 14.25 172.945736 19.2930581 161.749334 19.2930581 161.749334 27.2469669 171.065874 27.2469669 171.065874 32.290025 161.749334 32.290025 161.749334 45"></polyline>
                <polyline id="Fill-9" fill="#2A80B9" fill-rule="nonzero" points="194 19.1290181 188.194055 19.1290181 188.194055 45 182.512952 45 182.512952 19.1290181 176.705426 19.1290181 176.705426 14.25 194 14.25 194 19.1290181"></polyline>
                <path d="M14.7444765,22.5 C14.7708238,23.2004269 15.2774519,23.5282803 14.8987589,23.9489596 C14.8117211,24.0457356 14.3685362,23.990435 14.335766,23.9029698 C14.1694242,23.4574617 14.4574091,23.1028044 14.7444765,22.5" id="Fill-10" fill="#0180B7" fill-rule="nonzero"></path>
                <g id="Group-14" transform="translate(0.000000, 12.750000)">
                    <g id="Fill-11-Clipped">
                        <mask id="mask-8" fill="white">
                            <use xlink:href="#path-7"></use>
                        </mask>
                        <g id="path-3"></g>
                        <path d="M31.1373918,10.5886441 L31.5357461,10.2140357" id="Fill-11" fill="#00A154" fill-rule="nonzero" mask="url(#mask-8)"></path>
                    </g>
                    <g id="Fill-13-Clipped">
                        <mask id="mask-10" fill="white">
                            <use xlink:href="#path-9"></use>
                        </mask>
                        <g id="path-3"></g>
                        <polyline id="Fill-13" fill="#2A80B9" fill-rule="nonzero" mask="url(#mask-10)" points="32.4121572 12.1700062 20.8891973 0.065929803 9.42629169 11.8015936 0 32.1011416 7.85537512 32.1011416 13.3733899 19.5844877 20.8891973 26.9025369 28.0538699 19.7192069 33.3888699 32.1011416 41.3404268 32.1011416 32.4121572 12.1700062"></polyline>
                    </g>
                </g>
                <polyline id="Fill-15" fill="#2A80B9" fill-rule="nonzero" points="21.0229578 11.388918 30.8294574 21.75 21.1719886 0 11.2790698 21.4930801 21.0229578 11.388918"></polyline>
                <path d="M31.6289077,24.6006813 L21.4851788,34.3727256 C21.1906291,34.682494 20.7335317,34.6771067 20.4447484,34.360525 L10.7920914,24 L9.78189519,25.048776 L9.7751938,25.0636702 L19.5730996,35.3593894 C19.962248,35.7860934 20.4662552,36 20.9705741,36 C21.4610226,36 21.9520945,35.7976602 22.3379702,35.3918716 L32.3333333,25.3509388 L31.6289077,24.6006813" id="Fill-16" fill="#2C3E51" fill-rule="nonzero"></path>
                <path d="M30.9425839,23.25 L21.2339828,32.2836531 C20.9341681,32.5628838 20.4689002,32.5577929 20.174955,32.2725456 L10.3806925,23.262496 L10.3687951,23.2742206 L9.7751938,23.8684729 L19.2877257,33.1727175 C19.68383,33.5571611 20.1968462,33.75 20.7101796,33.75 C21.2093948,33.75 21.7092445,33.5674973 22.1020176,33.202029 L31.5813953,23.9008698 L30.9425839,23.25" id="Fill-17" fill="#00A154" fill-rule="nonzero"></path>
            </g>
            <g id="Group-4" transform="translate(46.000000, 5.000000)">
                <mask id="mask-12" fill="white">
                    <use xlink:href="#path-11"></use>
                </mask>
                <g id="Clip-3"></g>
                <path d="M5.90608985,2.99660917 C5.90608985,4.62744185 4.58403912,5.94963941 2.95305961,5.94963941 C1.32222693,5.94963941 2.93658537e-05,4.62744185 2.93658537e-05,2.99660917 C2.93658537e-05,1.36577649 1.32222693,0.0437257561 2.95305961,0.0437257561 C4.58403912,0.0437257561 5.90608985,1.36577649 5.90608985,2.99660917" id="Fill-2" fill="#2A80B9" mask="url(#mask-12)"></path>
            </g>
        </g>
    </g>
</svg>