<?xml version="1.0" encoding="UTF-8"?>
<svg width="26px" height="20px" viewBox="0 0 26 20" version="1.1" xmlns="http://www.w3.org/2000/svg" xmlns:xlink="http://www.w3.org/1999/xlink">
    <!-- Generator: Sketch 55.2 (78181) - https://sketchapp.com -->
    <title>Group 11</title>
    <desc>Created with Sketch.</desc>
    <defs>
        <polygon id="path-1" points="0.0110224138 0.0385411765 9 0.0385411765 9 17.9618294 0.0110224138 17.9618294"></polygon>
        <polygon id="path-3" points="0 0.0381811765 8.98907586 0.0381811765 8.98907586 17.9615753 0 17.9615753"></polygon>
    </defs>
    <g id="Page-1" stroke="none" stroke-width="1" fill="none" fill-rule="evenodd">
        <g id="Aime---hotel" transform="translate(-115.000000, -4806.000000)">
            <g id="Group-11" transform="translate(115.000000, 4806.000000)">
                <path d="M23.9950083,0 L2.00462693,0 C1.64366159,0 1.30572883,0.0874121537 1,0.231490789 L12.9477077,12 L15.6255838,9.46504754 C15.6255838,9.46504754 15.6257922,9.4647909 15.6258443,9.46468824 C15.6258965,9.46458559 15.6261049,9.46448293 15.6261049,9.46448293 L25,0.231696102 C24.6942191,0.0875148104 24.3560779,0 23.9950083,0" id="Fill-1" fill="#FFFFFF"></path>
                <g id="Group-5" transform="translate(17.000000, 1.000000)">
                    <mask id="mask-2" fill="white">
                        <use xlink:href="#path-1"></use>
                    </mask>
                    <g id="Clip-4"></g>
                    <path d="M8.76703966,0.0385411765 L0.0110224138,9.00010588 L8.76672931,17.9618294 C8.91191897,17.6512235 9.00000517,17.3079 9.00000517,16.9411765 L9.00000517,1.05882353 C9.00000517,0.692311765 8.91212586,0.349041176 8.76703966,0.0385411765" id="Fill-3" fill="#FFFFFF" mask="url(#mask-2)"></path>
                </g>
                <g id="Group-8" transform="translate(0.000000, 1.000000)">
                    <mask id="mask-4" fill="white">
                        <use xlink:href="#path-3"></use>
                    </mask>
                    <g id="Clip-7"></g>
                    <path d="M0.233265517,0.0381811765 C0.0880758621,0.348787059 -1.03448276e-05,0.692110588 -1.03448276e-05,1.05883412 L-1.03448276e-05,16.9411871 C-1.03448276e-05,17.3076988 0.0879724138,17.6510753 0.233058621,17.9615753 L8.98907586,9.00001059 L0.233265517,0.0381811765 Z" id="Fill-6" fill="#FFFFFF" mask="url(#mask-4)"></path>
                </g>
                <path d="M16.178991,11.0001036 L13.5007502,13.5580675 C13.3480681,13.7097515 13.1480703,13.7856193 12.9481246,13.7856193 C12.7481789,13.7856193 12.5481289,13.7097515 12.395499,13.5580675 L9.82147797,11 L1,19.7662338 C1.30578094,19.9117033 1.64392214,20 2.00499169,20 L23.9953731,20 C24.3563384,20 24.6942712,19.9118068 25,19.7664409 L16.178991,11.0001036 Z" id="Fill-9" fill="#FFFFFF"></path>
            </g>
        </g>
    </g>
</svg>