<?xml version="1.0" encoding="UTF-8"?>
<svg width="20px" height="20px" viewBox="0 0 20 20" version="1.1" xmlns="http://www.w3.org/2000/svg" xmlns:xlink="http://www.w3.org/1999/xlink">
    <!-- Generator: Sketch 55.2 (78181) - https://sketchapp.com -->
    <title>Group 3</title>
    <desc>Created with Sketch.</desc>
    <defs>
        <polygon id="path-1" points="0 0 20 0 20 20 0 20"></polygon>
    </defs>
    <g id="Page-1" stroke="none" stroke-width="1" fill="none" fill-rule="evenodd">
        <g id="Aime---hotel" transform="translate(-415.000000, -4806.000000)">
            <g id="Group-3" transform="translate(415.000000, 4806.000000)">
                <mask id="mask-2" fill="white">
                    <use xlink:href="#path-1"></use>
                </mask>
                <g id="Clip-2"></g>
                <path d="M16.8203787,12.5114519 C16.0976072,11.7978624 15.1951901,11.7978624 14.4770225,12.5114519 C13.9291084,13.0547006 13.3812863,13.5979494 12.842626,14.1504057 C12.6952541,14.3022852 12.5709479,14.3345579 12.3914405,14.2332282 C12.0369376,14.0398684 11.659369,13.8833852 11.3186779,13.6715642 C9.7303208,12.672585 8.39982999,11.3881239 7.22117692,9.94248373 C6.63647733,9.2243365 6.11623282,8.45545535 5.7525681,7.58998642 C5.67885912,7.41499587 5.69267092,7.2999008 5.83539286,7.15722894 C6.38326098,6.62779159 6.91731729,6.0844968 7.45602358,5.54129408 C8.20641874,4.78627038 8.20641874,3.90229416 7.4513736,3.14266666 C7.02320777,2.70995522 6.59504193,2.2863593 6.16692213,1.85360182 C5.72489845,1.41163673 5.28752475,0.96511387 4.84094318,0.527752583 C4.11817162,-0.176675318 3.21575457,-0.176675318 2.49754091,0.532310348 C1.94506886,1.07560514 1.41561648,1.63266531 0.853936568,2.16666042 C0.333692056,2.65926735 0.0712678338,3.26241158 0.016020629,3.9667474 C-0.0714080725,5.11309436 0.209385846,6.19498807 0.605324146,7.249305 C1.41561648,9.43150763 2.64947072,11.3696627 4.14574919,13.1467767 C6.16692213,15.5499619 8.57933737,17.4513325 11.4015948,18.8232658 C12.6722345,19.4401754 13.9889595,19.9143671 15.4208289,19.9926318 C16.4060247,20.0478314 17.2624024,19.799272 17.9483425,19.0304369 C18.4179437,18.5055574 18.9473961,18.0268079 19.444621,17.5249473 C20.1812504,16.7791312 20.1859003,15.8768319 19.4538288,15.1402234 C18.5790814,14.260897 17.6997761,13.3861744 16.8203787,12.5114519" id="Fill-1" fill="#FFFFFF" mask="url(#mask-2)"></path>
            </g>
        </g>
    </g>
</svg>