<?xml version="1.0" encoding="UTF-8"?>
<svg width="96px" height="85px" viewBox="0 0 96 85" version="1.1" xmlns="http://www.w3.org/2000/svg" xmlns:xlink="http://www.w3.org/1999/xlink">
    <!-- Generator: Sketch 55.2 (78181) - https://sketchapp.com -->
    <title>Group 8</title>
    <desc>Created with Sketch.</desc>
    <defs>
        <polygon id="path-1" points="0 0.0904013378 95.9355955 0.0904013378 95.9355955 85 0 85"></polygon>
    </defs>
    <g id="Page-1" stroke="none" stroke-width="1" fill="none" fill-rule="evenodd">
        <g id="Aime---hotel" transform="translate(-561.000000, -2784.000000)">
            <g id="Group-8" transform="translate(561.000000, 2784.000000)">
                <path d="M78.8091755,22.2000376 L78.8091755,59.480476 L59.4504,26.1998025 C58.9386189,25.4364778 57.9063346,25.2338652 57.1452747,25.7471693 C56.9671783,25.8673823 56.8135595,26.0214582 56.6937032,26.1998025 L41.3439268,52.6001129 L33.846713,42.083446 C33.5493229,41.6581853 33.0659584,41.4028031 32.5477061,41.4005456 C32.0325488,41.4005456 31.5491843,41.6494374 31.249262,42.0701831 L18.1916686,60.40606 L18.1916686,22.2000376 L78.8091755,22.2000376 Z M38.5191425,63.7999624 L58.0712075,30.1767099 L77.6274928,63.7999624 L38.5191425,63.7999624 Z M19.6952191,63.7999624 L32.5477061,45.7527661 L39.583501,55.6164446 L34.8232893,63.7999624 L19.6952191,63.7999624 Z M80.4052911,19 L16.5958343,19 C15.7137926,19 15,19.7170455 15,20.6005832 L15,65.4005456 C15,66.2840833 15.714918,67 16.5958343,67 L80.4052911,67 C81.2859261,67 82,66.2840833 82,65.4005456 L82,20.6005832 C82,19.7170455 81.2859261,19 80.4052911,19 L80.4052911,19 Z" id="Fill-1" fill="#000000"></path>
                <g id="Group-5">
                    <mask id="mask-2" fill="white">
                        <use xlink:href="#path-1"></use>
                    </mask>
                    <g id="Clip-4"></g>
                    <path d="M91.5329133,62.5302358 L91.3193912,62.5924933 L91.3193912,55.4812057 L92.6735858,60.5550518 C92.8927717,61.4150017 92.3853027,62.2939983 91.5329133,62.5302358 L91.5329133,62.5302358 Z M88.1080637,71.5570084 C88.1080637,72.4468077 87.3896212,73.1683127 86.5029664,73.1683127 L9.43252389,73.1683127 C8.54615221,73.1683127 7.82742655,72.4468077 7.82742655,71.5570084 L7.82742655,13.5298679 C7.82742655,12.6397843 8.54615221,11.9185635 9.43252389,11.9185635 L86.5029664,11.9185635 C87.3896212,11.9185635 88.1080637,12.6397843 88.1080637,13.5298679 L88.1080637,71.5570084 Z M20.1899044,81.7186304 C19.3386478,81.9474766 18.4630372,81.4434465 18.2277097,80.5911722 L17.111108,76.3920585 L40.0041345,76.3920585 L20.1899044,81.7186304 Z M3.26190442,24.5306873 C3.0384708,23.6684632 3.54707257,22.7863395 4.40172743,22.5498177 L4.61609912,22.4932458 L4.61609912,29.6045334 L3.26190442,24.5306873 Z M75.7447363,3.3759214 C76.5971257,3.14735953 77.4727363,3.65110535 77.706931,4.5033796 L78.8212673,8.69481773 L55.9316389,8.69481773 L75.7447363,3.3759214 Z M95.7767363,59.7272258 L91.3193912,43.0268579 L91.3193912,13.5298679 C91.3193912,10.8599013 89.162931,8.69481773 86.5029664,8.69481773 L82.1487009,8.69481773 L80.8112142,3.65878094 C80.1111788,1.08973411 77.4758513,-0.431737458 74.9124531,0.255085284 L43.5184708,8.69481773 L9.43252389,8.69481773 C6.77284248,8.69481773 4.61609912,10.8599013 4.61609912,13.5298679 L4.61609912,19.1574933 L3.56916106,19.4372258 C1.00774513,20.1393997 -0.513246018,22.7806538 0.158753982,25.3596505 L4.61609912,42.0600184 L4.61609912,71.5570084 C4.61609912,74.2269749 6.77284248,76.3920585 9.43252389,76.3920585 L13.7870726,76.3920585 L15.1245593,81.4269582 C15.8155327,84.0014064 18.4542584,85.5262893 21.0190726,84.8326438 C21.0199221,84.8315067 21.0221876,84.8315067 21.0233204,84.8315067 L52.4173027,76.3920585 L86.5029664,76.3920585 C89.162931,76.3920585 91.3193912,74.2269749 91.3193912,71.5558712 L91.3193912,65.9293829 L92.3663292,65.6487977 C94.9277451,64.9471923 96.4487363,62.3062224 95.7767363,59.7272258 L95.7767363,59.7272258 Z" id="Fill-3" fill="#000000" mask="url(#mask-2)"></path>
                </g>
                <path d="M38.5,29.2502866 C40.2943783,29.2502866 41.75,30.7048902 41.75,32.5005732 C41.75,34.2953964 40.2943783,35.7497134 38.5,35.7497134 C36.7053351,35.7497134 35.25,34.2953964 35.25,32.5005732 C35.25,30.7048902 36.7053351,29.2502866 38.5,29.2502866 M38.5,39 C42.0901896,39 45,36.089933 45,32.5005732 C45,28.910067 42.0901896,26 38.5,26 C34.9098104,26 32,28.910067 32,32.5005732 C32,36.089933 34.9098104,39 38.5,39" id="Fill-6" fill="#000000"></path>
            </g>
        </g>
    </g>
</svg>