<?xml version="1.0" encoding="UTF-8"?>
<svg width="96px" height="96px" viewBox="0 0 96 96" version="1.1" xmlns="http://www.w3.org/2000/svg" xmlns:xlink="http://www.w3.org/1999/xlink">
    <!-- Generator: Sketch 55.2 (78181) - https://sketchapp.com -->
    <title>Group 33</title>
    <desc>Created with Sketch.</desc>
    <defs>
        <polygon id="path-1" points="0 0 35 0 35 67.9117507 0 67.9117507"></polygon>
        <polygon id="path-3" points="0.181139568 0.09965625 51.818823 0.09965625 51.818823 48 0.181139568 48"></polygon>
    </defs>
    <g id="Page-1" stroke="none" stroke-width="1" fill="none" fill-rule="evenodd">
        <g id="Aime---hotel" transform="translate(-1167.000000, -2776.000000)">
            <g id="Group-33" transform="translate(1167.000000, 2776.000000)">
                <g id="Group-3" transform="translate(31.000000, 0.000000)">
                    <mask id="mask-2" fill="white">
                        <use xlink:href="#path-1"></use>
                    </mask>
                    <g id="Clip-2"></g>
                    <path d="M3.72340426,37.0410693 L31.2765957,37.0410693 L31.2765957,50.2053795 C31.2765957,57.8914515 25.0966755,64.1444377 17.5,64.1444377 C9.90332447,64.1444377 3.72340426,57.8914515 3.72340426,50.2053795 L3.72340426,37.0410693 Z M17.5,3.76721884 C25.0966755,3.76721884 31.2765957,10.020205 31.2765957,17.706277 L31.2765957,33.2737562 L3.72340426,33.2737562 L3.72340426,17.706277 C3.72340426,10.020205 9.90332447,3.76721884 17.5,3.76721884 L17.5,3.76721884 Z M17.5,67.9117507 C27.1495745,67.9117507 35,59.9687479 35,50.2053795 L35,17.706277 C35,7.94290859 27.1495745,-9.41828255e-05 17.5,-9.41828255e-05 C7.85042553,-9.41828255e-05 0,7.94290859 0,17.706277 L0,50.2053795 C0,59.9687479 7.85042553,67.9117507 17.5,67.9117507 L17.5,67.9117507 Z" id="Fill-1" fill="#000000" mask="url(#mask-2)"></path>
                </g>
                <path d="M43.8932774,24 L53.1067226,24 C54.152569,24 55,23.1046 55,22 C55,20.8954 54.152569,20 53.1067226,20 L43.8932774,20 C42.8476203,20 42,20.8954 42,22 C42,23.1046 42.8476203,24 43.8932774,24" id="Fill-4" fill="#000000"></path>
                <path d="M43.8932774,18 L53.1067226,18 C54.152569,18 55,17.1046 55,16 C55,14.8954 54.152569,14 53.1067226,14 L43.8932774,14 C42.8476203,14 42,14.8954 42,16 C42,17.1046 42.8476203,18 43.8932774,18" id="Fill-6" fill="#000000"></path>
                <g id="Group-10" transform="translate(22.000000, 48.000000)">
                    <mask id="mask-4" fill="white">
                        <use xlink:href="#path-3"></use>
                    </mask>
                    <g id="Clip-9"></g>
                    <path d="M27.7740604,36.7382813 L24.2259022,36.7382813 L24.2259022,27.7932187 C24.8126791,27.8335312 25.4037583,27.8554687 26.0000748,27.8554687 C26.5962043,27.8554687 27.1872835,27.8335312 27.7740604,27.7932187 L27.7740604,36.7382813 Z M36.9659022,44.2500937 L15.0349957,44.2500937 C15.8071396,42.0608437 17.892564,40.4882812 20.3380604,40.4882812 L31.6626504,40.4882812 C34.1073986,40.4882812 36.192823,42.0608437 36.9659022,44.2500937 L36.9659022,44.2500937 Z M49.9483194,0.09965625 C48.9158014,0.09965625 48.0778158,0.93890625 48.0778158,1.97465625 C48.0778158,14.1775312 38.1736863,24.1054687 26.0000748,24.1054687 C13.8264633,24.1054687 3.92214676,14.1775312 3.92214676,1.97465625 C3.92214676,0.93890625 3.08490935,0.09965625 2.05164317,0.09965625 C1.01856403,0.09965625 0.181139568,0.93890625 0.181139568,1.97465625 C0.181139568,14.3481562 8.89001727,24.7199062 20.484895,27.2592187 L20.484895,36.7382812 L20.3380604,36.7382812 C15.1745353,36.7382812 10.9739453,40.9489687 10.9739453,46.1250937 C10.9739453,47.1606562 11.8111827,48.0000937 12.8444489,48.0000937 L39.1557007,48.0000937 C40.1887799,48.0000937 41.0262043,47.1606562 41.0262043,46.1250937 C41.0262043,40.9497187 36.8256144,36.7382812 31.6619022,36.7382812 L31.5150676,36.7382812 L31.5150676,27.2592187 C43.1106935,24.7199062 51.818823,14.3481562 51.818823,1.97465625 C51.818823,0.93890625 50.9813986,0.09965625 49.9483194,0.09965625 L49.9483194,0.09965625 Z" id="Fill-8" fill="#000000" mask="url(#mask-4)"></path>
                </g>
                <path d="M9,18 C7.8954,18 7,18.8374414 7,19.8705415 L7,38.1294585 C7,39.1619974 7.8954,40 9,40 C10.1046,40 11,39.1619974 11,38.1294585 L11,19.8705415 C11,18.8374414 10.1046,18 9,18" id="Fill-11" fill="#000000"></path>
                <path d="M24,35 C25.1046,35 26,34.1394585 26,33.0778614 L26,23.9221386 C26,22.8605415 25.1046,22 24,22 C22.8954,22 22,22.8605415 22,23.9221386 L22,33.0778614 C22,34.1394585 22.8954,35 24,35" id="Fill-13" fill="#000000"></path>
                <path d="M2,10 C0.8954,10 0,10.8409452 0,11.8783676 L0,43.1216324 C0,44.1590548 0.8954,45 2,45 C3.1046,45 4,44.1590548 4,43.1216324 L4,11.8783676 C4,10.8409452 3.1046,10 2,10" id="Fill-15" fill="#000000"></path>
                <path d="M17,16 C15.8954,16 15,16.8367254 15,17.868942 L15,43.131058 C15,44.1632746 15.8954,45 17,45 C18.1046,45 19,44.1632746 19,43.131058 L19,17.868942 C19,16.8367254 18.1046,16 17,16" id="Fill-17" fill="#000000"></path>
                <path d="M87,18 C85.8954,18 85,18.8374414 85,19.8705415 L85,38.1294585 C85,39.1619974 85.8954,40 87,40 C88.1046,40 89,39.1619974 89,38.1294585 L89,19.8705415 C89,18.8374414 88.1046,18 87,18" id="Fill-19" fill="#000000"></path>
                <path d="M72,35 C73.1046,35 74,34.1394585 74,33.0778614 L74,23.9221386 C74,22.8605415 73.1046,22 72,22 C70.8954,22 70,22.8605415 70,23.9221386 L70,33.0778614 C70,34.1394585 70.8954,35 72,35" id="Fill-21" fill="#000000"></path>
                <path d="M94,10 C92.8954,10 92,10.8409452 92,11.8783676 L92,43.1216324 C92,44.1590548 92.8954,45 94,45 C95.1046,45 96,44.1590548 96,43.1216324 L96,11.8783676 C96,10.8409452 95.1046,10 94,10" id="Fill-23" fill="#000000"></path>
                <path d="M79,41 C78.4742,41 77.9578,41.2124 77.586,41.5844 C77.214,41.9586 77,42.4726 77,43 C77,43.5266 77.214,44.0422 77.586,44.414 C77.9578,44.7868 78.4742,45 79,45 C79.5258,45 80.0422,44.7868 80.414,44.414 C80.786,44.0422 81,43.5266 81,43 C81,42.4726 80.786,41.9586 80.414,41.5844 C80.0422,41.2124 79.5258,41 79,41" id="Fill-25" fill="#000000"></path>
                <path d="M79,16 C77.8954,16 77,16.8341422 77,17.8631722 L77,35.1368278 C77,36.1658578 77.8954,37 79,37 C80.1046,37 81,36.1658578 81,35.1368278 L81,17.8631722 C81,16.8341422 80.1046,16 79,16" id="Fill-27" fill="#000000"></path>
                <path d="M48.7749665,59 C53.8613106,59 58,54.861931 58,49.7750811 C58,48.7947038 57.2046375,48 56.2250335,48 C55.244542,48 54.450067,48.7947038 54.450067,49.7750811 C54.450067,52.9036615 51.904055,55.4498378 48.7749665,55.4498378 C47.7946525,55.4498378 47,56.2445416 47,57.2249189 C47,58.2052962 47.7946525,59 48.7749665,59" id="Fill-29" fill="#000000"></path>
                <path d="M56,46 C56.5266,46 57.0422,45.786 57.414,45.414 C57.786,45.0422 58,44.5258 58,44 C58,43.4742 57.7868,42.9578 57.414,42.586 C57.0422,42.214 56.5266,42 56,42 C55.4742,42 54.9586,42.214 54.5868,42.586 C54.2148,42.9578 54,43.4742 54,44 C54,44.5258 54.214,45.0422 54.5868,45.414 C54.9586,45.786 55.4742,46 56,46" id="Fill-31" fill="#000000"></path>
            </g>
        </g>
    </g>
</svg>