<?xml version="1.0" encoding="UTF-8"?>
<svg width="85px" height="85px" viewBox="0 0 85 85" version="1.1" xmlns="http://www.w3.org/2000/svg" xmlns:xlink="http://www.w3.org/1999/xlink">
    <!-- Generator: Sketch 55.2 (78181) - https://sketchapp.com -->
    <title>Group 6</title>
    <desc>Created with Sketch.</desc>
    <defs>
        <polygon id="path-1" points="8.56854839e-05 0 85 0 85 85 8.56854839e-05 85"></polygon>
    </defs>
    <g id="Page-1" stroke="none" stroke-width="1" fill="none" fill-rule="evenodd">
        <g id="Aime---hotel" transform="translate(-572.000000, -2953.000000)">
            <g id="Group-6" transform="translate(572.000000, 2953.000000)">
                <g id="Group-3">
                    <mask id="mask-2" fill="white">
                        <use xlink:href="#path-1"></use>
                    </mask>
                    <g id="Clip-2"></g>
                    <path d="M74.8355595,21.9354839 L73.4645917,23.3064516 C72.9465373,23.8246774 72.6612046,24.5129032 72.6612046,25.245 L72.6612046,37.5974194 C71.4165373,38.1444355 70.3703175,39.0520161 69.6423337,40.1858065 C68.184995,40.5916129 66.6976663,40.8658065 65.1935433,41.0070161 C66.228624,39.3906452 66.881376,37.5576613 67.0923337,35.6465323 L69.9194405,35.6451613 L69.9194405,32.9032258 L65.0031502,32.9032258 C64.118876,32.9032258 63.2878982,32.5591129 62.6629083,31.9339516 C62.0473438,31.3183871 61.6934627,30.4656452 61.6934627,29.5937097 L61.6934627,25.0612903 L57.6107208,23.6999194 C57.8890272,19.126371 60.0224244,15.1875806 60.9750756,13.6342742 C61.339753,13.683629 61.7073438,13.7096774 62.0761341,13.7096774 L69.9194405,13.7096774 C71.4316179,13.7096774 72.6612046,14.9394355 72.6612046,16.4516129 L72.6612046,19.1935484 L74.0323437,19.1935484 C74.787747,19.1935484 75.4033115,19.8091129 75.4033115,20.5645161 C75.4033115,21.0745161 75.196124,21.5749194 74.8355595,21.9354839 L74.8355595,21.9354839 Z M79.5160433,43.8709677 L79.5174143,68.5483871 L71.2904083,68.5483871 L71.2904083,43.8709677 C71.2904083,41.6033871 73.1355595,39.7580645 75.4033115,39.7580645 C77.6708921,39.7580645 79.5160433,41.6033871 79.5160433,43.8709677 L79.5160433,43.8709677 Z M75.4033115,82.2580645 C73.8909627,82.2580645 72.6612046,81.0283065 72.6612046,79.516129 L72.6612046,76.7741935 L78.1450756,76.7741935 L78.1450756,79.516129 C78.1450756,81.0283065 76.9154889,82.2580645 75.4033115,82.2580645 L75.4033115,82.2580645 Z M58.9515272,74.0322581 L68.5483014,74.0322581 C68.5483014,75.0426613 69.1037147,75.9173387 69.9194405,76.3930645 L69.9194405,79.516129 C69.9194405,80.5196774 70.2100857,81.4478226 70.6816986,82.2580645 L58.9515272,82.2580645 L58.9515272,74.0322581 Z M53.4676563,65.8064516 L56.2095917,65.8064516 L56.2095917,57.5806452 L53.4676563,57.5806452 L53.4676563,65.8064516 Z M46.5771724,63.0645161 C47.4479083,61.9156452 47.9839567,60.5008065 47.9839567,58.9516129 C47.9839567,57.843871 47.5397631,56.8415222 46.8254889,56.101371 L47.1051663,55.548871 C47.4766986,54.8044355 48.5734728,54.6262097 49.1628175,55.2143548 L50.7258921,56.7772581 L50.7258921,63.0645161 L46.5771724,63.0645161 Z M34.268624,63.0645161 L34.268624,56.778629 L35.8315272,55.2157258 C36.4198438,54.6289516 37.5233014,54.8085484 37.8920917,55.548871 L38.9081502,57.5806452 L43.8696825,57.5806452 C44.6264567,57.5806452 45.2420212,58.1962097 45.2420212,58.9516129 C45.2420212,61.2191935 43.3951563,63.0645161 41.127747,63.0645161 L34.268624,63.0645161 Z M71.2902369,74.0322581 L79.5174143,74.0322581 L79.5174143,71.2903226 L71.2902369,71.2903226 L71.2902369,74.0322581 Z M63.0275857,43.8641129 C64.9070111,43.8517742 66.7758115,43.6475 68.6101663,43.2622581 C68.5921724,43.4665323 68.5483014,43.6625806 68.5483014,43.8709677 L68.5483014,71.2903226 L58.9515272,71.2903226 L58.9515272,56.5112903 C58.9515272,51.9596774 60.3896724,47.5369355 63.0275857,43.8641129 L63.0275857,43.8641129 Z M61.6648438,2.74193548 L72.6612046,2.74193548 C76.4409627,2.74193548 79.5160433,5.81701613 79.5160433,9.59677419 L79.5160433,10.1643548 L79.9177369,10.5660484 C81.4273438,12.0754839 82.2581502,14.0812097 82.2581502,16.2171774 L82.2581502,16.786129 C82.2581502,20.4274194 80.4894304,23.8658065 77.5267692,25.9812097 L75.4033115,27.4975 L75.4033115,25.245 L76.7742792,23.8740323 C77.6585534,22.9897581 78.1450756,21.8148387 78.1450756,20.5645161 C78.1450756,18.7767742 76.9991179,17.2522581 75.4033115,16.6860484 L75.4033115,16.4516129 C75.4033115,13.4272581 72.9437954,10.9677419 69.9194405,10.9677419 L62.0761341,10.9677419 C61.5647631,10.9677419 61.057505,10.8978226 60.5665272,10.7620968 C58.8089466,10.2699194 57.5805595,8.65217742 57.5805595,6.82604839 C57.5805595,4.57354839 59.4121724,2.74193548 61.6648438,2.74193548 L61.6648438,2.74193548 Z M31.5266885,65.8064516 L24.4156502,65.8064516 C16.9807208,65.8064516 10.5633921,60.263629 9.48581149,52.9097581 L8.26427923,44.5674194 C8.14072077,43.5241129 8.32580141,42.5315323 8.78644657,41.7706452 C9.45822077,40.6587903 10.5728175,39.9362903 11.8658115,39.7841129 C11.9960534,39.7676613 12.1674244,39.7580645 12.3358821,39.7580645 C14.4158115,39.7580645 16.1679083,41.3209677 16.4215373,43.4596774 L17.4441079,49.5700806 C18.2216179,54.2135484 22.2029083,57.5833871 26.9121825,57.5820161 L26.9133821,57.5820161 L31.5253175,57.5820161 L31.5253175,65.8064516 L31.5266885,65.8064516 Z M26.0484728,71.2903226 L8.22589214,71.2903226 L8.22589214,58.1509677 C11.0843599,64.3175806 17.3579083,68.5483871 24.4156502,68.5483871 L26.0484728,68.5483871 L26.0484728,71.2903226 Z M17.8226663,82.2580645 C17.8226663,80.7458871 19.052253,79.516129 20.5646018,79.516129 L20.5646018,76.7741935 C17.540247,76.7741935 15.0807308,79.2337097 15.0807308,82.2580645 L8.22589214,82.2580645 L8.22589214,74.0322581 L26.0484728,74.0322581 L26.0484728,82.2580645 L17.8226663,82.2580645 Z M7.47305948,25.9812097 C4.51039819,23.8644355 2.74202117,20.4274194 2.74202117,16.786129 L2.74202117,16.2171774 C2.74202117,14.0825806 3.57282762,12.0754839 5.08209173,10.5660484 L5.48395665,10.1643548 L5.48395665,9.59677419 C5.48395665,7.32919355 7.32927923,5.48387097 9.59685988,5.48387097 L20.2314567,5.48387097 C22.579753,5.48387097 24.7883821,4.56943548 26.449995,2.90782258 C26.7764567,2.58016129 27.4194405,2.84612903 27.4194405,3.30951613 L27.4194405,6.82604839 C27.4194405,8.65217742 26.1910534,10.2699194 24.4334728,10.7607258 C23.942495,10.8978226 23.4352369,10.9677419 22.9240373,10.9677419 L15.0807308,10.9677419 C12.056376,10.9677419 9.59685988,13.4272581 9.59685988,16.4516129 L9.59685988,16.6860484 C8.00088206,17.2522581 6.8549244,18.7767742 6.8549244,20.5645161 C6.8549244,21.8148387 7.34144657,22.991129 8.22589214,23.8740323 L9.59685988,25.245 L9.59685988,27.4975 L7.47305948,25.9812097 Z M23.3065373,25.0612903 L23.3065373,29.5950806 C23.3065373,30.4656452 22.9528276,31.3197581 22.3357208,31.9353226 C21.7119304,32.5604839 20.8812954,32.9032258 19.9968498,32.9032258 L15.0807308,32.9032258 L15.0807308,35.6451613 L17.9104083,35.6451613 C18.1215373,37.5494355 18.7588659,39.3824194 19.7692692,41.0083871 C19.3305595,40.9672581 18.8961341,40.9014516 18.4601663,40.8370161 C17.3318599,38.5598387 15.0024143,37.0175 12.3387954,37.016129 L12.3387954,25.245 C12.3387954,24.5129032 12.0534627,23.8246774 11.5354083,23.3064516 L10.1644405,21.9354839 C9.80387601,21.5749194 9.59685988,21.0745161 9.59685988,20.5645161 C9.59685988,19.8091129 10.212253,19.1935484 10.9678276,19.1935484 L12.3387954,19.1935484 L12.3387954,16.4516129 C12.3387954,14.9394355 13.5683821,13.7096774 15.0807308,13.7096774 L22.9240373,13.7096774 C23.2926563,13.7096774 23.6600756,13.683629 24.024753,13.6342742 C24.9775756,15.1875806 27.1109728,19.126371 27.3892792,23.6999194 L23.3065373,25.0612903 Z M25.6193599,53.3004839 L25.8248337,54.741371 C22.9528276,54.2862097 20.642747,52.0666129 20.1491986,49.1149194 L19.2414466,43.6995968 C20.114753,43.7914516 20.9908014,43.846119 21.8654788,43.8558871 C23.8384728,46.6593448 25.1326663,49.8895161 25.6193599,53.3004839 L25.6193599,53.3004839 Z M79.1198337,28.2131452 C82.8008821,25.5822581 85.0000857,21.3103226 85.0000857,16.786129 L85.0000857,16.2171774 C85.0000857,13.5369355 84.0253276,11.0075 82.2416986,9.03330645 C81.9483115,4.00185484 77.7641179,0 72.6612046,0 L61.6648438,0 C57.9015373,0 54.838624,3.06274194 54.838624,6.82604839 C54.838624,9.3116129 56.213876,11.5490323 58.3087147,12.7431452 C57.0266885,14.9449194 54.838624,19.4608871 54.838624,24.6774194 L54.838624,25.6658871 L58.9515272,27.0368548 L58.9515272,29.5937097 C58.9515272,31.2100806 59.5808014,32.7304839 60.7228175,33.8725 C61.7059728,34.8554839 62.9739466,35.4299194 64.3366885,35.5807258 C64.0858014,37.4329032 63.3153175,39.186371 62.0883014,40.6176613 C58.6608821,44.6154032 56.6429889,49.6139516 56.283624,54.8387097 L52.6644405,54.8387097 L51.1015373,53.2758065 C50.3418498,52.5162903 49.330247,52.0967742 48.2540373,52.0967742 C46.7185534,52.0967742 45.3393599,52.9495161 44.655247,54.316371 L44.3644304,54.8894355 C44.2012853,54.868871 44.0396825,54.8387097 43.8696825,54.8387097 L40.6026663,54.8387097 L40.344753,54.3232258 C39.6580696,52.9495161 38.2773337,52.0967742 36.7406502,52.0967742 C35.6658115,52.0967742 34.6538659,52.5149194 33.8917792,53.2758065 L32.330247,54.8387097 L28.6092692,54.8387097 L28.3337046,52.9125 C27.6907208,48.4116129 25.8126663,44.1876613 22.9033014,40.6958065 C21.6846825,39.2329839 20.9359627,37.4507258 20.6837046,35.5793548 C22.0395917,35.4258065 23.2995111,34.851371 24.2771825,33.873871 C25.4191986,32.7304839 26.0484728,31.2114516 26.0484728,29.5937097 L26.0484728,27.0368548 L30.161376,25.6658871 L30.161376,24.6774194 C30.161376,19.4595161 27.9731401,14.9435484 26.6912853,12.7431452 C28.7862954,11.5490323 30.161376,9.31298387 30.161376,6.82604839 L30.161376,3.30951613 C30.161376,1.48475806 28.6764466,0 26.8516885,0 C25.9674143,0 25.1367792,0.344112903 24.5116179,0.969274194 C23.3680595,2.11266129 21.8491986,2.74193548 20.2314567,2.74193548 L9.59685988,2.74193548 C6.00886593,2.74193548 3.05717238,5.51129032 2.76532762,9.02508065 C0.977585685,10.9992742 8.56854839e-05,13.5328226 8.56854839e-05,16.2171774 L8.56854839e-05,16.786129 C8.56854839e-05,21.3116935 2.19911794,25.583629 5.88016633,28.2131452 L9.59685988,30.8673387 L9.59685988,37.5933065 C8.30266633,38.1540323 7.19629536,39.1 6.43797883,40.3544355 C5.82944052,41.3620968 5.51394657,42.5781452 5.50040827,43.8709677 L5.48395665,43.8709677 L5.48395665,85 L28.7904083,85 L28.7904083,68.5483871 L31.5266885,68.5483871 C33.0388659,68.5483871 34.268624,67.318629 34.268624,65.8064516 L50.7258921,65.8064516 C50.7258921,67.318629 51.9554788,68.5483871 53.4676563,68.5483871 L56.2095917,68.5483871 L56.2095917,85 L75.4033115,85 C78.4276663,85 80.8871825,82.5404839 80.8871825,79.516129 L80.8871825,76.3930645 C81.7027369,75.9173387 82.2581502,75.0426613 82.2581502,74.0322581 L82.2581502,43.8709677 C82.2581502,40.0912097 79.1828982,37.016129 75.4033115,37.016129 L75.4033115,30.8673387 L79.1198337,28.2131452 Z" id="Fill-1" fill="#000000" mask="url(#mask-2)"></path>
                </g>
                <polygon id="Fill-4" fill="#000000" points="45.6606603 33.0473762 47.5872455 35 54 28.5 47.5872455 22 45.6606603 23.9526238 48.7846131 27.119078 33 27.119078 33 29.880922 48.7846131 29.880922"></polygon>
            </g>
        </g>
    </g>
</svg>