<?xml version="1.0" encoding="UTF-8"?>
<svg width="35px" height="35px" viewBox="0 0 35 35" version="1.1" xmlns="http://www.w3.org/2000/svg" xmlns:xlink="http://www.w3.org/1999/xlink">
    <!-- Generator: Sketch 55.2 (78181) - https://sketchapp.com -->
    <title>Group 3</title>
    <desc>Created with Sketch.</desc>
    <defs>
        <polygon id="path-1" points="0 0 35 0 35 35 0 35"></polygon>
    </defs>
    <g id="Page-1" stroke="none" stroke-width="1" fill="none" fill-rule="evenodd">
        <g id="Aime---hotel" transform="translate(-1182.000000, -4654.000000)">
            <g id="Group-9" transform="translate(885.000000, 4654.000000)">
                <g id="Group-3" transform="translate(297.000000, 0.000000)">
                    <mask id="mask-2" fill="white">
                        <use xlink:href="#path-1"></use>
                    </mask>
                    <g id="Clip-2"></g>
                    <path d="M25.4903223,13.644668 C25.4980469,13.8169336 25.5018066,13.9899512 25.5018066,14.1637891 C25.5018066,19.4714844 21.4616309,25.592041 14.0732129,25.5923145 L14.0734863,25.5923145 L14.0732129,25.5923145 C11.8048437,25.5923145 9.69397461,24.9274512 7.91635742,23.7880371 C8.23067383,23.8251563 8.55052734,23.8435449 8.87448242,23.8435449 C10.7564844,23.8435449 12.4884375,23.2016504 13.8633496,22.1241699 C12.1049414,22.0915625 10.6224316,20.9302734 10.1108301,19.3342188 C10.3556934,19.38125 10.6074609,19.4068848 10.8657227,19.4068848 C11.232334,19.4068848 11.5874609,19.3574609 11.9250195,19.2653809 C10.087041,18.8974023 8.70249023,17.2730469 8.70249023,15.3280176 C8.70249023,15.309834 8.70249023,15.2935645 8.70303711,15.276748 C9.24430664,15.577666 9.86323242,15.75875 10.5222852,15.7790527 C9.4437793,15.0593652 8.73482422,13.8291699 8.73482422,12.4355957 C8.73482422,11.6996387 8.93375,11.010166 9.27875977,10.4165332 C11.259541,12.8470508 14.2198437,14.445498 17.5582422,14.613457 C17.4893359,14.3191699 17.4537891,14.0126465 17.4537891,13.6975098 C17.4537891,11.4801367 19.2528027,9.68119141 21.4709961,9.68119141 C22.6264062,9.68119141 23.6699805,10.1695508 24.402998,10.9503516 C25.3180566,10.7698145 26.1774023,10.4355371 26.953623,9.97541016 C26.653252,10.912959 26.0166211,11.6996387 25.1872168,12.1970898 C25.9998047,12.0998828 26.7741797,11.8844141 27.4938672,11.5644922 C26.9562891,12.3701074 26.2746094,13.0777637 25.4903223,13.644668 M32.4758301,0 L2.52423828,0 C1.13011719,0 0,1.13011719 0,2.52423828 L0,32.4758301 C0,33.8699512 1.13011719,35 2.52423828,35 L32.4758301,35 C33.8699512,35 35,33.8699512 35,32.4758301 L35,2.52423828 C35,1.13011719 33.8699512,0 32.4758301,0" id="Fill-1" fill="#FFFFFF" mask="url(#mask-2)"></path>
                </g>
            </g>
        </g>
    </g>
</svg>